<?xml version="1.0" encoding="utf-8"?>
<!-- Generator: Adobe Illustrator 19.0.0, SVG Export Plug-In . SVG Version: 6.00 Build 0)  -->
<svg version="1.1" id="Layer_1" xmlns="http://www.w3.org/2000/svg" xmlns:xlink="http://www.w3.org/1999/xlink" x="0px" y="0px"
	 viewBox="0 0 1280 990" style="enable-background:new 0 0 1280 990;" xml:space="preserve">
<style type="text/css">
	.st0{fill:#742B7B;}
</style>
<g id="XMLID_1_">
	<polygon id="XMLID_21_" points="284,39.6 267.8,96.3 233.3,97.8 220.6,104.7 208,121.1 205,136.9 199.3,166.3 195.2,187.8 
		193.2,198 181.9,229.9 169.4,262.6 153.5,296.5 133.3,320.5 118.7,326.7 105.9,333.7 120.2,345.9 132.3,370.5 141,399.2 
		142.9,427.7 141.6,465 136.6,491 129.4,526 129.3,550.6 130.8,575.1 137.3,589.7 149.8,600.4 168.8,604 173.1,613.1 160.9,676.4 
		116.1,661.9 89.8,642.7 71.1,621.5 57,587.1 54,544.3 58,492.3 66.3,449.3 70.6,426.6 74.3,407.4 72.4,384.7 63.3,372.5 
		48.3,363.8 40.3,362.3 56.8,276.9 71.8,279.8 87,275.7 100.7,254.1 107.6,228.4 122.6,166.8 130.4,131.9 141.9,88.4 160.5,58.8 
		187.4,40.7 216.5,34.8 255,34.1 	"/>
</g>
<g id="XMLID_3_">
	<polygon id="XMLID_20_" points="1111.9,287.3 1106.6,345.7 1138.3,359.4 1147.5,370.3 1153,390 1150.2,405.9 1144.9,435.4 
		1141.1,456.9 1139.2,467.1 1138.6,500.9 1138.6,536.1 1141.3,573.4 1151.5,603 1163,614.1 1172.3,625.2 1154.7,631.4 1134.5,650 
		1116.1,673.7 1103.8,699.6 1091.3,734.8 1086.6,760.9 1081,796.2 1072.4,819.2 1062.2,841.5 1050.9,853 1035.4,858.7 1016.4,855.3 
		1008.7,861.6 997.3,925.1 1044.6,927.7 1076.2,919.4 1101.3,906.3 1126.8,879.3 1145.3,840.4 1160.6,790.5 1168.3,747.4 
		1172.4,724.7 1175.8,705.4 1185.6,684.9 1198.4,676.5 1215.4,673.5 1223.9,675.1 1239.2,589.4 1223.7,586.6 1210.9,577.6 
		1205.9,552.7 1208.7,526.3 1216.8,463.4 1222.1,428.1 1227,383.3 1220.3,349 1201.7,322.5 1176.6,306.7 1140.9,292.5 	"/>
</g>
<g id="XMLID_10_">
	<path id="XMLID_47_" d="M828.1,836.4c-3.5,0-6.6-2.7-7-6.2l-49.7-434.8c-0.2-1.6-1.1-2.9-2.4-3.7c-0.8-0.5-1.7-0.7-2.5-0.7
		c-0.7,0-1.3,0.1-1.9,0.4l-98.5,40.9c-2.5,1.1-3.7,3.9-2.7,6.5l118,292.3c0.7,1.7,0.7,3.6-0.1,5.4c-0.7,1.7-2.1,3.1-3.8,3.8
		L656.6,789c-0.8,0.3-1.7,0.5-2.6,0.5c-2.8,0-5.5-1.8-6.5-4.4L530.1,494.2c-0.5-1.2-1.5-2.2-2.7-2.7c-0.6-0.3-1.3-0.4-1.9-0.4
		c-0.7,0-1.3,0.1-1.9,0.4l-155.9,64.8c-1.5,0.6-2.6,1.9-3,3.5l-53.7,237c-0.7,3.2-3.6,5.5-6.8,5.5c-0.5,0-1-0.1-1.5-0.2l-92.7-21
		c-3.8-0.9-6.1-4.6-5.3-8.4L361.1,81.8c0.3-1.1,0.8-2.2,1.6-3c0.4-0.5,0.7-1,0.9-1.6c0.7-1.9,2.1-3.4,3.9-4.1l120.9-48.8
		c0.8-0.3,1.7-0.5,2.6-0.5c2.8,0,5.5,1.8,6.5,4.4l116.9,289.5c0.5,1.2,1.5,2.2,2.7,2.7c0.6,0.3,1.3,0.4,1.9,0.4
		c0.7,0,1.3-0.1,1.9-0.4l461.2-191.7c0.8-0.4,1.7-0.5,2.7-0.5c2.9,0,5.4,1.7,6.5,4.3l40.9,98.5c1.5,3.6-0.2,7.7-3.8,9.2l-208.2,86.5
		c-2.1,0.9-3.3,3-3,5.2l55,481.1c0.2,1.8-0.3,3.7-1.5,5.1c-1.2,1.5-2.8,2.4-4.7,2.6l-137.2,15.7
		C828.6,836.3,828.3,836.4,828.1,836.4z M435,267.1c-0.1,0-0.3,0-0.4,0c-2.2,0.2-4,1.7-4.5,3.9L400,403.6c-0.4,1.8,0.2,3.7,1.7,4.9
		c0.9,0.8,2.1,1.2,3.2,1.2c0.6,0,1.3-0.1,1.9-0.4l71.6-29.8c2.5-1.1,3.7-3.9,2.7-6.5l-41.5-102.9C438.8,268.3,437,267.1,435,267.1z"
		/>
	<path id="XMLID_42_" class="st0" d="M491.1,28.7c0.7,0,1.5,0.4,1.9,1.2l116.9,289.5c1,2.5,2.9,4.4,5.4,5.5c1.2,0.5,2.5,0.8,3.9,0.8
		c1.3,0,2.6-0.3,3.8-0.8l461.2-191.7c0.2-0.1,0.5-0.1,0.7-0.1c0.7,0,1.5,0.4,1.9,1.2l40.9,98.5c0.3,0.6,0.1,1.2,0,1.5
		c-0.1,0.4-0.5,0.8-1.1,1.1L918.4,322c-4.1,1.7-6.6,5.9-6.1,10.4l55,481.1c0.1,1.1-0.7,2.1-1.8,2.2l-137.2,15.7c-0.1,0-0.2,0-0.2,0
		c-1,0-1.9-0.8-2-1.8l-49.7-434.8c-0.4-3.1-2.2-5.9-4.9-7.5c-1.6-0.9-3.3-1.4-5.1-1.4c-1.3,0-2.6,0.3-3.8,0.8l-98.5,40.9
		c-5.1,2.1-7.5,7.9-5.4,13l118,292.3c0.3,0.6,0.1,1.2,0,1.5c-0.2,0.4-0.5,0.8-1.1,1.1l-120.9,48.8c-0.2,0.1-0.5,0.1-0.7,0.1
		c-0.7,0-1.5-0.4-1.9-1.2L534.7,492.4c-1-2.5-2.9-4.4-5.4-5.5c-1.2-0.5-2.5-0.8-3.9-0.8c-1.3,0-2.6,0.3-3.8,0.8l-155.9,64.8
		c-3,1.2-5.2,3.9-5.9,7l-53.7,237c-0.2,1-1.2,1.6-2,1.6c-0.1,0-0.3,0-0.4,0l-92.7-21c-1.1-0.2-1.7-1.3-1.5-2.4L366,82.9
		c0.1-0.3,0.2-0.6,0.4-0.8c0.8-0.9,1.5-2,1.9-3.2c0.1-0.3,0.4-0.9,1.1-1.2l120.9-48.8C490.6,28.8,490.8,28.7,491.1,28.7
		 M404.9,414.7c1.3,0,2.6-0.3,3.8-0.8l71.6-29.8c5.1-2.1,7.5-7.9,5.4-13l-41.5-102.9c-1.5-3.8-5.2-6.3-9.3-6.3c-0.3,0-0.5,0-0.8,0
		c-4.4,0.4-8,3.5-8.9,7.8l-30.1,132.7c-0.8,3.6,0.5,7.5,3.3,9.9C400.3,413.9,402.6,414.7,404.9,414.7 M491.1,18.7
		c-1.5,0-3,0.3-4.5,0.9L365.7,68.4c-3.3,1.3-5.6,3.9-6.8,7c-1.3,1.5-2.2,3.2-2.7,5.2L199.6,771.6c-1.5,6.4,2.6,12.9,9,14.4l92.7,21
		c0.9,0.2,1.8,0.3,2.6,0.3c5.5,0,10.5-3.8,11.7-9.3l53.7-237l155.9-64.8L642.8,787c1.9,4.7,6.4,7.5,11.2,7.5c1.5,0,3-0.3,4.5-0.9
		l120.9-48.8c6.1-2.5,9.1-9.5,6.6-15.6L668,436.9l98.5-40.9l49.7,434.8c0.7,6.1,5.9,10.6,11.9,10.6c0.5,0,0.9,0,1.4-0.1l137.2-15.7
		c6.6-0.7,11.3-6.7,10.6-13.3l-55-481.1l208.2-86.5c6.1-2.5,9-9.6,6.5-15.7l-40.9-98.5c-1.9-4.6-6.4-7.4-11.1-7.4
		c-1.5,0-3.1,0.3-4.6,0.9L619.1,315.7L502.2,26.2C500.3,21.6,495.8,18.7,491.1,18.7L491.1,18.7z M404.9,404.7L435,272.1L476.5,375
		L404.9,404.7L404.9,404.7z"/>
</g>
</svg>
